<svg width="24" height="24" viewBox="0 0 24 24" fill="none" xmlns="http://www.w3.org/2000/svg">
<rect width="24" height="24" fill="#640EF1"/>
<path d="M1 22H23" stroke="white" stroke-width="2" stroke-miterlimit="10" stroke-linecap="round" stroke-linejoin="round"/>
<path d="M19.7803 22.0101V17.55" stroke="white" stroke-width="2" stroke-miterlimit="10" stroke-linecap="round" stroke-linejoin="round"/>
<path d="M19.8001 10.89C18.5801 10.89 17.6001 11.87 17.6001 13.09V15.36C17.6001 16.58 18.5801 17.56 19.8001 17.56C21.0201 17.56 22.0001 16.58 22.0001 15.36V13.09C22.0001 11.87 21.0201 10.89 19.8001 10.89Z" stroke="white" stroke-width="2" stroke-miterlimit="10" stroke-linecap="round" stroke-linejoin="round"/>
<path d="M2.1001 22V6.03003C2.1001 4.02003 3.10015 3.01001 5.09015 3.01001H11.3201C13.3101 3.01001 14.3001 4.02003 14.3001 6.03003V22" stroke="white" stroke-width="2" stroke-miterlimit="10" stroke-linecap="round" stroke-linejoin="round"/>
<path d="M5.7998 8.25H10.7498" stroke="white" stroke-width="2" stroke-miterlimit="10" stroke-linecap="round" stroke-linejoin="round"/>
<path d="M5.7998 12H10.7498" stroke="white" stroke-width="2" stroke-miterlimit="10" stroke-linecap="round" stroke-linejoin="round"/>
<path d="M8.25 22V18.25" stroke="white" stroke-width="2" stroke-miterlimit="10" stroke-linecap="round" stroke-linejoin="round"/>
</svg>
