<svg width="268" height="63" viewBox="0 0 268 63" fill="none" xmlns="http://www.w3.org/2000/svg">
<path d="M24.7681 20.25C24.7681 26.4632 19.7313 31.5 13.5181 31.5H2.26807V20.25C2.26807 14.0368 7.30486 9 13.5181 9C19.7313 9 24.7681 14.0368 24.7681 20.25Z" fill="white"/>
<path d="M24.7681 42.75C24.7681 36.5368 29.8049 31.5 36.0181 31.5H47.2681V42.75C47.2681 48.9632 42.2313 54 36.0181 54C29.8049 54 24.7681 48.9632 24.7681 42.75Z" fill="white"/>
<path d="M2.26807 42.75C2.26807 48.9632 7.30486 54 13.5181 54H24.7681V42.75C24.7681 36.5368 19.7313 31.5 13.5181 31.5C7.30486 31.5 2.26807 36.5368 2.26807 42.75Z" fill="white"/>
<path d="M47.2681 20.25C47.2681 14.0368 42.2313 9 36.0181 9H24.7681V20.25C24.7681 26.4632 29.8049 31.5 36.0181 31.5C42.2313 31.5 47.2681 26.4632 47.2681 20.25Z" fill="white"/>
<path d="M94.1121 22.312C96.9961 22.312 99.2641 23.208 100.916 25C102.568 26.764 103.394 29.228 103.394 32.392V46H96.2541V33.232C96.2541 31.748 95.8481 30.6 95.0361 29.788C94.2521 28.948 93.1741 28.528 91.8021 28.528C90.3741 28.528 89.2401 28.976 88.4001 29.872C87.5881 30.74 87.1821 31.972 87.1821 33.568V46H80.0001V33.232C80.0001 31.748 79.6081 30.6 78.8241 29.788C78.0401 28.948 76.9621 28.528 75.5901 28.528C74.1621 28.528 73.0281 28.962 72.1881 29.83C71.3481 30.698 70.9281 31.944 70.9281 33.568V46H63.7461V22.564H70.9281V26.554C71.5441 25.238 72.4821 24.202 73.7421 23.446C75.0301 22.69 76.5281 22.312 78.2361 22.312C80.0281 22.312 81.6101 22.732 82.9821 23.572C84.3541 24.384 85.3901 25.56 86.0901 27.1C86.9021 25.644 88.0081 24.482 89.4081 23.614C90.8361 22.746 92.4041 22.312 94.1121 22.312ZM117.07 22.27C118.862 22.27 120.402 22.676 121.69 23.488C122.978 24.3 123.93 25.406 124.546 26.806V22.564H131.686V46H124.546V41.758C123.93 43.158 122.978 44.264 121.69 45.076C120.402 45.888 118.862 46.294 117.07 46.294C115.138 46.294 113.402 45.818 111.862 44.866C110.35 43.886 109.146 42.486 108.25 40.666C107.382 38.846 106.948 36.718 106.948 34.282C106.948 31.818 107.382 29.69 108.25 27.898C109.146 26.078 110.35 24.692 111.862 23.74C113.402 22.76 115.138 22.27 117.07 22.27ZM119.38 28.57C117.84 28.57 116.594 29.074 115.642 30.082C114.718 31.09 114.256 32.49 114.256 34.282C114.256 36.074 114.718 37.474 115.642 38.482C116.594 39.49 117.84 39.994 119.38 39.994C120.892 39.994 122.124 39.476 123.076 38.44C124.056 37.404 124.546 36.018 124.546 34.282C124.546 32.518 124.056 31.132 123.076 30.124C122.124 29.088 120.892 28.57 119.38 28.57ZM151.499 22.312C154.187 22.312 156.315 23.208 157.883 25C159.479 26.792 160.277 29.256 160.277 32.392V46H153.095V33.232C153.095 31.664 152.675 30.446 151.835 29.578C151.023 28.682 149.931 28.234 148.559 28.234C147.103 28.234 145.941 28.696 145.073 29.62C144.233 30.544 143.813 31.86 143.813 33.568V46H136.631V14.92H143.813V26.848C144.485 25.448 145.479 24.342 146.795 23.53C148.139 22.718 149.707 22.312 151.499 22.312ZM175.976 22.27C178.3 22.27 180.372 22.76 182.192 23.74C184.04 24.692 185.482 26.078 186.518 27.898C187.582 29.718 188.114 31.846 188.114 34.282C188.114 36.718 187.582 38.846 186.518 40.666C185.482 42.486 184.04 43.886 182.192 44.866C180.372 45.818 178.3 46.294 175.976 46.294C173.652 46.294 171.566 45.818 169.718 44.866C167.87 43.886 166.414 42.486 165.35 40.666C164.314 38.846 163.796 36.718 163.796 34.282C163.796 31.846 164.314 29.718 165.35 27.898C166.414 26.078 167.87 24.692 169.718 23.74C171.566 22.76 173.652 22.27 175.976 22.27ZM175.976 28.486C174.604 28.486 173.442 28.99 172.49 29.998C171.566 30.978 171.104 32.406 171.104 34.282C171.104 36.158 171.566 37.586 172.49 38.566C173.442 39.546 174.604 40.036 175.976 40.036C177.348 40.036 178.496 39.546 179.42 38.566C180.344 37.586 180.806 36.158 180.806 34.282C180.806 32.406 180.344 30.978 179.42 29.998C178.496 28.99 177.348 28.486 175.976 28.486ZM215.148 22.564V46H207.924V41.758C207.252 43.13 206.244 44.222 204.9 45.034C203.584 45.846 202.044 46.252 200.28 46.252C197.592 46.252 195.45 45.356 193.854 43.564C192.286 41.772 191.502 39.308 191.502 36.172V22.564H198.642V35.29C198.642 36.886 199.048 38.132 199.86 39.028C200.7 39.896 201.82 40.33 203.22 40.33C204.676 40.33 205.824 39.868 206.664 38.944C207.504 38.02 207.924 36.704 207.924 34.996V22.564H215.148ZM228.624 22.27C231.592 22.27 233.958 23.012 235.722 24.496C237.514 25.98 238.634 27.94 239.082 30.376H232.362C232.166 29.424 231.718 28.682 231.018 28.15C230.346 27.59 229.492 27.31 228.456 27.31C227.644 27.31 227.028 27.492 226.608 27.856C226.188 28.192 225.978 28.682 225.978 29.326C225.978 30.054 226.356 30.6 227.112 30.964C227.896 31.328 229.114 31.692 230.766 32.056C232.558 32.476 234.028 32.91 235.176 33.358C236.324 33.778 237.318 34.478 238.158 35.458C238.998 36.438 239.418 37.754 239.418 39.406C239.418 40.75 239.054 41.94 238.326 42.976C237.598 44.012 236.548 44.824 235.176 45.412C233.804 46 232.18 46.294 230.304 46.294C227.14 46.294 224.606 45.594 222.702 44.194C220.798 42.794 219.636 40.792 219.216 38.188H226.146C226.258 39.196 226.678 39.966 227.406 40.498C228.162 41.03 229.128 41.296 230.304 41.296C231.116 41.296 231.732 41.114 232.152 40.75C232.572 40.358 232.782 39.854 232.782 39.238C232.782 38.426 232.39 37.852 231.606 37.516C230.85 37.152 229.604 36.774 227.868 36.382C226.132 36.018 224.704 35.626 223.584 35.206C222.464 34.786 221.498 34.114 220.686 33.19C219.874 32.238 219.468 30.95 219.468 29.326C219.468 27.226 220.266 25.532 221.862 24.244C223.458 22.928 225.712 22.27 228.624 22.27ZM265.655 33.652C265.655 34.24 265.585 34.884 265.445 35.584H249.191C249.275 37.348 249.723 38.622 250.535 39.406C251.347 40.162 252.383 40.54 253.643 40.54C254.707 40.54 255.589 40.274 256.289 39.742C256.989 39.21 257.451 38.524 257.675 37.684H265.277C264.969 39.336 264.297 40.82 263.261 42.136C262.225 43.424 260.909 44.446 259.313 45.202C257.717 45.93 255.939 46.294 253.979 46.294C251.683 46.294 249.639 45.818 247.847 44.866C246.083 43.886 244.697 42.486 243.689 40.666C242.681 38.846 242.177 36.718 242.177 34.282C242.177 31.818 242.667 29.69 243.647 27.898C244.655 26.078 246.055 24.692 247.847 23.74C249.639 22.76 251.683 22.27 253.979 22.27C256.303 22.27 258.347 22.746 260.111 23.698C261.875 24.65 263.233 25.994 264.185 27.73C265.165 29.438 265.655 31.412 265.655 33.652ZM258.389 32.56C258.417 31.02 257.997 29.872 257.129 29.116C256.289 28.332 255.239 27.94 253.979 27.94C252.663 27.94 251.571 28.332 250.703 29.116C249.835 29.9 249.345 31.048 249.233 32.56H258.389Z" fill="white"/>
</svg>
